0
SECTION
2
HEADER
9
$INSUNITS
70
4
9
$ACADVER
1
AC1014
9
$HANDSEED
5
FFFF
0
ENDSEC
0
SECTION
2
TABLES
0
TABLE
2
VPORT
5
8
100
AcDbSymbolTable
0
ENDTAB
0
TABLE
2
LTYPE
5
5
100
AcDbSymbolTable
0
LTYPE
5
14
100
AcDbSymbolTableRecord
100
AcDbLinetypeTableRecord
2
BYBLOCK
70
0
0
LTYPE
5
15
100
AcDbSymbolTableRecord
100
AcDbLinetypeTableRecord
2
BYLAYER
70
0
0
LTYPE
5
16
100
AcDbSymbolTableRecord
100
AcDbLinetypeTableRecord
2
DASHED
70
0
3
Dashed __ __ __ __ __ __ __ __ __ __ __ __ __ _
72
65
73
2
40
0.75
49
0.5
74
0
49
-0.25
74
0
0
ENDTAB
0
TABLE
2
LAYER
5
2
100
AcDbSymbolTable
70
2
0
LAYER
5
50
100
AcDbSymbolTableRecord
100
AcDbLayerTableRecord
2
0
70
0
62
7
6
CONTINUOUS
0
ENDTAB
0
TABLE
2
STYLE
5
3
100
AcDbSymbolTable
70
1
0
STYLE
5
11
100
AcDbSymbolTableRecord
100
AcDbTextStyleTableRecord
2
STANDARD
70
0
0
ENDTAB
0
TABLE
2
VIEW
5
6
100
AcDbSymbolTable
70
0
0
ENDTAB
0
TABLE
2
UCS
5
7
100
AcDbSymbolTable
70
0
0
ENDTAB
0
TABLE
2
APPID
5
9
100
AcDbSymbolTable
70
2
0
APPID
5
12
100
AcDbSymbolTableRecord
100
AcDbRegAppTableRecord
2
ACAD
70
0
0
ENDTAB
0
TABLE
2
DIMSTYLE
5
A
100
AcDbSymbolTable
70
1
0
ENDTAB
0
TABLE
2
BLOCK_RECORD
5
1
100
AcDbSymbolTable
70
1
0
BLOCK_RECORD
5
1F
100
AcDbSymbolTableRecord
100
AcDbBlockTableRecord
2
*MODEL_SPACE
0
BLOCK_RECORD
5
1B
100
AcDbSymbolTableRecord
100
AcDbBlockTableRecord
2
*PAPER_SPACE
0
ENDTAB
0
ENDSEC
0
SECTION
2
BLOCKS
0
BLOCK
5
20
100
AcDbEntity
100
AcDbBlockBegin
2
*MODEL_SPACE
0
ENDBLK
5
21
100
AcDbEntity
100
AcDbBlockEnd
0
BLOCK
5
1C
100
AcDbEntity
100
AcDbBlockBegin
2
*PAPER_SPACE
0
ENDBLK
5
1D
100
AcDbEntity
100
AcDbBlockEnd
0
ENDSEC
0
SECTION
2
ENTITIES
0
LWPOLYLINE
5
100
100
AcDbEntity
8
0
100
AcDbPolyline
90
8
70
1
43
0.0
10
3.0249999999999999
20
-2.5249999999999999
10
16.024999999999999
20
-2.5250000000000017
42
-0.41421356237309503
10
16.524999999999999
20
-3.0249999999999999
10
16.524999999999999
20
-16.024999999999999
42
-0.41421356237309503
10
16.024999999999999
20
-16.524999999999999
10
3.0249999999999999
20
-16.525000000000002
42
-0.41421356237309503
10
2.5249999999999999
20
-16.024999999999999
10
2.5249999999999999
20
-3.0249999999999999
42
-0.41421356237309503
0
LWPOLYLINE
5
101
100
AcDbEntity
8
0
100
AcDbPolyline
90
8
70
1
43
0.0
10
117.32500000000002
20
-2.5249999999999999
10
130.32499999999999
20
-2.5249999999999928
42
-0.41421356237309503
10
130.82499999999999
20
-3.0249999999999999
10
130.82499999999999
20
-16.024999999999999
42
-0.41421356237309503
10
130.32499999999999
20
-16.524999999999999
10
117.32500000000002
20
-16.525000000000006
42
-0.41421356237309503
10
116.82500000000002
20
-16.024999999999999
10
116.82500000000002
20
-3.0249999999999999
42
-0.41421356237309503
0
LWPOLYLINE
5
102
100
AcDbEntity
8
0
100
AcDbPolyline
90
8
70
1
43
0.0
10
3.0249999999999999
20
-21.575000000000003
10
16.024999999999999
20
-21.575000000000003
42
-0.41421356237309503
10
16.524999999999999
20
-22.074999999999999
10
16.525000000000002
20
-35.075000000000003
42
-0.41421356237309503
10
16.024999999999999
20
-35.575000000000003
10
3.0249999999999999
20
-35.575000000000003
42
-0.41421356237309503
10
2.5249999999999999
20
-35.075000000000003
10
2.5250000000000017
20
-22.074999999999999
42
-0.41421356237309503
0
LWPOLYLINE
5
103
100
AcDbEntity
8
0
100
AcDbPolyline
90
8
70
1
43
0.0
10
22.074999999999999
20
-21.575000000000003
10
35.075000000000003
20
-21.574999999999996
42
-0.41421356237309503
10
35.575000000000003
20
-22.074999999999999
10
35.575000000000003
20
-35.075000000000003
42
-0.41421356237309503
10
35.075000000000003
20
-35.575000000000003
10
22.074999999999999
20
-35.575000000000003
42
-0.41421356237309503
10
21.575000000000003
20
-35.075000000000003
10
21.575000000000003
20
-22.074999999999999
42
-0.41421356237309503
0
LWPOLYLINE
5
104
100
AcDbEntity
8
0
100
AcDbPolyline
90
8
70
1
43
0.0
10
41.125
20
-21.575000000000003
10
54.125000000000007
20
-21.575000000000003
42
-0.41421356237309503
10
54.625
20
-22.074999999999999
10
54.625
20
-35.075000000000003
42
-0.41421356237309503
10
54.125000000000007
20
-35.575000000000003
10
41.125
20
-35.575000000000003
42
-0.41421356237309503
10
40.625
20
-35.075000000000003
10
40.625
20
-22.074999999999999
42
-0.41421356237309503
0
LWPOLYLINE
5
105
100
AcDbEntity
8
0
100
AcDbPolyline
90
8
70
1
43
0.0
10
98.275000000000006
20
-21.575000000000003
10
111.27500000000001
20
-21.574999999999992
42
-0.41421356237309503
10
111.77500000000002
20
-22.074999999999999
10
111.77500000000002
20
-35.075000000000003
42
-0.41421356237309503
10
111.27500000000001
20
-35.575000000000003
10
98.275000000000006
20
-35.574999999999989
42
-0.41421356237309503
10
97.77500000000002
20
-35.075000000000003
10
97.775000000000006
20
-22.074999999999999
42
-0.41421356237309503
0
LWPOLYLINE
5
106
100
AcDbEntity
8
0
100
AcDbPolyline
90
8
70
1
43
0.0
10
117.32500000000002
20
-21.575000000000003
10
130.32499999999999
20
-21.574999999999992
42
-0.41421356237309503
10
130.82499999999999
20
-22.074999999999999
10
130.82499999999999
20
-35.075000000000003
42
-0.41421356237309503
10
130.32499999999999
20
-35.575000000000003
10
117.32500000000002
20
-35.57500000000001
42
-0.41421356237309503
10
116.82500000000002
20
-35.075000000000003
10
116.82500000000002
20
-22.074999999999999
42
-0.41421356237309503
0
LWPOLYLINE
5
107
100
AcDbEntity
8
0
100
AcDbPolyline
90
8
70
1
43
0.0
10
136.375
20
-21.575000000000003
10
149.375
20
-21.574999999999992
42
-0.41421356237309503
10
149.875
20
-22.074999999999999
10
149.875
20
-35.075000000000003
42
-0.41421356237309503
10
149.375
20
-35.575000000000003
10
136.375
20
-35.57500000000001
42
-0.41421356237309503
10
135.875
20
-35.075000000000003
10
135.87500000000003
20
-22.074999999999999
42
-0.41421356237309503
0
LINE
5
108
100
AcDbEntity
8
0
100
AcDbLine
10
0
20
0
30
0
11
57.150000000000006
21
0
31
0
0
LINE
5
109
100
AcDbEntity
8
0
100
AcDbLine
10
57.150000000000006
20
-38.100000000000009
30
0
11
0
21
-38.100000000000009
31
0
0
LINE
5
110
100
AcDbEntity
8
0
100
AcDbLine
10
0
20
-38.100000000000009
30
0
11
0
21
0
31
0
0
LINE
5
111
100
AcDbEntity
8
0
100
AcDbLine
10
95.250000000000028
20
-38.100000000000009
30
0
11
152.40000000000001
21
-38.100000000000009
31
0
0
LINE
5
112
100
AcDbEntity
8
0
100
AcDbLine
10
152.40000000000001
20
-38.100000000000009
30
0
11
152.40000000000001
21
0
31
0
0
LINE
5
113
100
AcDbEntity
8
0
100
AcDbLine
10
152.40000000000001
20
0
30
0
11
95.250000000000028
21
0
31
0
0
LINE
5
114
100
AcDbEntity
8
0
100
AcDbLine
10
95.250000000000028
20
-19.050000000000004
30
0
11
95.250000000000028
21
-38.100000000000009
31
0
0
LWPOLYLINE
5
115
100
AcDbEntity
8
0
100
AcDbPolyline
90
4
70
1
43
0.0
10
95.250000000000028
20
-38.100000000000009
10
57.150000000000006
20
-38.100000000000009
10
57.150000000000006
20
-19.050000000000004
10
95.250000000000028
20
-19.050000000000004
0
LWPOLYLINE
5
116
100
AcDbEntity
8
0
100
AcDbPolyline
90
4
70
1
43
0.0
10
69.850000000000009
20
-22.425000000000001
10
82.550000000000026
20
-22.425000000000001
10
82.550000000000026
20
-34.725000000000009
10
69.850000000000009
20
-34.725000000000009
0
LWPOLYLINE
5
117
100
AcDbEntity
8
0
100
AcDbPolyline
90
8
70
1
43
0.0
10
19.049999999999997
20
0
10
38.100000000000001
20
0
10
19.049999999999997
20
0
10
19.049999999999997
20
2
10
38.100000000000001
20
2
10
38.100000000000001
20
0
10
38.100000000000001
20
-19.050000000000001
10
19.049999999999997
20
-19.050000000000001
0
LINE
5
118
100
AcDbEntity
8
0
100
AcDbLine
10
95.250000000000028
20
-19.050000000000004
30
0
11
57.150000000000006
21
-19.050000000000004
31
0
0
LINE
5
119
100
AcDbEntity
8
0
100
AcDbLine
10
57.150000000000006
20
0
30
0
11
95.250000000000028
21
0
31
0
0
LINE
5
120
100
AcDbEntity
8
0
100
AcDbLine
10
95.250000000000028
20
-38.100000000000009
30
0
11
57.150000000000006
21
-38.100000000000009
31
0
0
LINE
5
121
100
AcDbEntity
8
0
100
AcDbLine
10
57.150000000000006
20
-38.100000000000009
30
0
11
57.150000000000006
21
-19.050000000000004
31
0
0
LWPOLYLINE
5
122
100
AcDbEntity
8
0
100
AcDbPolyline
90
4
70
1
43
0.0
10
95.450000000000017
20
-15.774999999999997
10
56.950000000000017
20
-15.774999999999997
10
56.950000000000017
20
-3.2750000000000004
10
95.450000000000017
20
-3.2750000000000004
0
LWPOLYLINE
5
123
100
AcDbEntity
8
0
100
AcDbPolyline
90
4
70
1
43
0.0
10
114.30000000000001
20
0
10
38.100000000000009
20
0
10
38.100000000000009
20
-19.050000000000004
10
114.30000000000001
20
-19.050000000000004
0
LWPOLYLINE
5
124
100
AcDbEntity
8
0
100
AcDbPolyline
90
4
70
1
43
0.0
10
-2
20
2
10
154.40000000000001
20
2
10
154.40000000000001
20
-40.099999999999994
10
-2
20
-40.099999999999994
0
ENDSEC
0
SECTION
2
OBJECTS
0
DICTIONARY
5
C
100
AcDbDictionary
3
ACAD_GROUP
350
D
3
ACAD_MLINESTYLE
350
17
0
DICTIONARY
5
D
100
AcDbDictionary
0
DICTIONARY
5
1A
330
C
100
AcDbDictionary
0
DICTIONARY
5
17
100
AcDbDictionary
0
ENDSEC
0
EOF
